<svg id="Try_1" data-name="Try 1" xmlns="http://www.w3.org/2000/svg" width="640.008" height="426.672" viewBox="0 0 1080 720">
  <defs>
    <style>
      .cls-1 {
        fill: #143055;
      }

      .cls-2 {
        fill: #fff;
      }

      .cls-2, .cls-3, .cls-4 {
        fill-rule: evenodd;
      }

      .cls-3 {
        fill: #96d8e9;
      }

      .cls-4 {
        fill: #48c4e5;
      }
    </style>
  </defs>
  <rect id="Background" class="cls-1" width="1080" height="720"/>
  <path id="Nx" class="cls-2" d="M47,54H198c5.985,13.435,15.432,25.882,23,38,14.305,22.9,26.853,46.6,41,69,31.917,50.542,58.454,103.206,90,154,14,22.547,26.861,45.923,41,69,5.349,8.73,13.64,17.73,17,28h1V389c3.113-5.014,1-29.839,1-38V252h1v2c4.342,3.549,5.906,9.121,9,14,6.892,10.865,13.863,21.7,21,33,21.244,33.623,44.622,66.342,65,101,6.427,10.931,13.846,22.072,21,33,1.517,2.318,8.187,7.965,7,12-1.057,3.594-6.938,8.744-9,12-10.094,15.938-20.182,31.514-30,47-19.522,30.793-37.577,61.191-57,92-9.971,15.816-22.411,30.959-31,48l-2-1L198,305h-1v91c-2.5,4.056-1,15.041-1,21V662c-12.075,3.979-32.861,1-47,1H47V54ZM412,211V55c12.075-3.979,32.861-1,47-1H560c4.153,12.609,1,34.294,1,49V210c-12.075,3.979-32.861,1-47,1H412Zm4,452c1.057-6.513,6.051-10.356,9-15,8.425-13.269,16.558-26.308,25-39,22.976-34.542,42.851-69.924,65-105,8.437-13.361,16.987-27.375,26-41,3.556-5.375,8.788-10.169,11-17,0.386-5.3-7.656-12.978-11-18-9.105-13.674-17.13-27.724-26-41-24.6-36.817-45.545-75.015-70-112-8.411-12.72-16.574-25.643-25-39-2.523-4-6.318-6.92-8-12H561c6.194,13.429,16.356,24.915,24,37,7.856,12.42,14.156,24.572,22,37,4.942,7.83,13.173,15.427,16,25,0.8-1.021.355-.274,1-2,4.466-3.485,6.594-9.4,10-14,7.01-9.473,22.642-26.02,32-33,18.586-13.862,39.209-26.553,62-36,14.5-6.01,30.832-7.944,47-12,28.614-7.179,67.167-.271,89,7,72.159,24.029,114.99,63.09,144,130a295.052,295.052,0,0,1,14,42q1,10,2,20c1.86,8.179,4.23,24.036,1,33-7.11,19.743-37.687,28.978-52,9-7.659-10.69-4.736-31.18-13-41-10.8-12.832-43.23-16.608-58-27-19.007-13.373-25.253-40.044-45-53-18.813-12.343-60.06-16.614-86-7-14.654,5.431-27.442,14.281-39,23-17.607,13.283-26.55,36.949-33,62-1.715,6.661-4.036,21.125-1,29,2.2,5.717,7.748,11.108,11,16,7.952,11.962,15.569,24.278,23,36,21.836,34.443,42.2,68.59,64,103,8.555,13.5,17.236,27.084,26,41,2.385,3.787,8.275,9.726,8,13-5.108,3.17-30.682,1-39,1H687c-4.273-7.4-10.407-14.074-15-21-11.3-17.046-20.671-33.972-32-51-5.206-7.825-13.65-15.581-17-25-0.8,1.021-.355.274-1,2-6.888,6.975-10.456,16.62-16,25-9.181,13.878-20.1,27.938-29,42-2.463,3.894-14.881,26.859-17,28H416Zm609-182c2.27,3.349.97,13.579,0,17-4.3,15.217-7.68,26.789-26,25-3-4.249-6.071-5.178-7-12,3.131-3.855,3.977-9.078,8-12C1009.3,492.244,1018.76,490.856,1025,481Z"/>
  <path id="Wave_2" data-name="Wave 2" class="cls-3" d="M779,379c30.567-.531,49.093,6.32,66,19l15,16v1h-1c-6.453,4.479-18.885.848-25-1-14.028-4.238-42.07-19.147-59-16-17.7,3.29-31.885,5.554-44,14l-19,18v-2c4.413-4.64,6.208-11.756,10-17,5.485-7.585,15.974-16.036,24-21,6.448-3.988,15.428-6.734,23-9C772.484,379.957,776.391,380.7,779,379Z"/>
  <path id="Wave_1" data-name="Wave 1" class="cls-4" d="M960,458c-19.366-2.333-24.375-15.874-38-21-5.381-2.025-9.931.023-14,1-9.813,2.356-20.117-2.462-25-6-8.265-5.988-11.963-19.695-18-28-14.763-20.31-57.676-45.408-97-34-12.768,3.7-26.115,9.885-36,17-5.861,4.218-10.135,13.23-17,16v-2c6.343-6.812,10.423-16.611,16-24,18.724-24.805,83.037-46.962,120-23,20.121,13.044,26.635,40.363,46,54C919.185,423.623,960.168,419.651,960,458Z"/>
</svg>
