<svg width="500"
     height="500"
     viewBox="0 0 500 500"
     xmlns="http://www.w3.org/2000/svg"
     fill-rule="evenodd"
     clip-rule="evenodd"
     stroke-linejoin="round"
     stroke-miterlimit="2">
  <g fill-rule="nonzero">
    <path d="M130.68 104.59L97.49 52.71 97.44 96.3 40.24 0 0 0 0 162.57 39.79 162.57 39.92 66.39 96.53 158.26 130.68 104.59zM97.5 41.79L137.24 41.79 137.33 41.33 137.33 0 97.54 0 97.49 41.33 97.5 41.79z"
          fill="#143055"
          transform="translate(2.03796 95.73354) scale(1.89284)" />
    <path d="M198.66,86.86C189.14,86.68 180.539,92.516 177.19,101.43C182.765,93.093 193.38,89.743 202.73,93.37C207.05,95.13 212.73,97.97 217.23,96.45C212.95,90.444 206.035,86.873 198.66,86.86Z"
          fill="#96d8e9"
          transform="translate(2.03796 95.73354) scale(1.89284)" />
    <path d="M243.75,106.42C243.75,101.55 241.1,100.42 235.6,98.42C231.52,97 226.89,95.4 223.52,91C222.86,90.13 222.25,89.15 221.6,88.11C220.144,85.416 218.169,83.037 215.79,81.11C212.58,78.75 208.37,77.6 202.91,77.6C191.954,77.608 182.084,84.221 177.91,94.35C183.187,87.028 191.957,83.061 200.94,83.931C209.924,84.802 217.768,90.381 221.54,98.58C223.425,101.69 227.141,103.175 230.65,102.22C236.02,101.07 235.65,106.15 243.76,107.87L243.75,106.42Z"
          fill="#48c4e5"
          transform="translate(2.03796 95.73354) scale(1.89284)" />
    <path d="M261.46,105.38L261.46,105.27C261.34,73.03 235.17,45.45 202.91,45.45C183.207,45.436 164.822,55.345 154,71.81L153.79,71.45L137.23,45.45L97.5,45.45L135.25,104.57L98.41,162.57L137,162.57L153.79,136.78L170.88,162.57L209.48,162.57L174.48,107.49C173.899,106.417 173.584,105.22 173.56,104C173.557,96.22 176.647,88.759 182.148,83.258C187.649,77.757 195.11,74.667 202.89,74.67C219.11,74.67 221.82,84.37 225.32,88.93C232.23,97.93 246.03,93.99 246.03,105.73C246.071,108.481 247.577,111.001 249.98,112.341C252.383,113.681 255.318,113.637 257.68,112.226C260.041,110.815 261.471,108.251 261.43,105.5L261.43,105.38L261.46,105.38Z"
          fill="#143055"
          transform="translate(2.03796 95.73354) scale(1.89284)" />
    <path d="M261.5,113.68C261.892,116.422 261.504,119.219 260.38,121.75C258.18,126.84 254.51,125.14 254.51,125.14C254.51,125.14 251.35,123.6 253.27,120.65C255.4,117.36 259.61,117.74 261.5,113.68Z"
          fill="#fff"
          transform="translate(2.03796 95.73354) scale(1.89284)" />
  </g>
</svg>
